<svg width="50" height="51" viewBox="0 0 50 51" fill="none" xmlns="http://www.w3.org/2000/svg">
<g clip-path="url(#clip0_1_121)">
<path d="M49.0904 11.077L25.5552 0.426185C25.1705 0.252064 24.7294 0.252552 24.3452 0.427161L0.907739 11.0779C0.384692 11.3156 0.0489502 11.837 0.0489502 12.4115V48.831C0.0489502 49.64 0.70481 50.2958 1.51379 50.2958H48.4865C49.2954 50.2958 49.9513 49.64 49.9513 48.831V12.4115C49.9512 11.8362 49.6145 11.3141 49.0904 11.077ZM34.2285 41.5068C35.0375 41.5068 35.6934 40.8509 35.6934 40.0419V38.5771H38.6231V47.3661H29.834V38.5771H32.7637V40.0419C32.7637 40.851 33.4196 41.5068 34.2285 41.5068ZM38.6231 35.6474H28.3692C27.5602 35.6474 26.9043 36.3032 26.9043 37.1122V47.3661H22.9981C22.9981 45.0401 22.9981 27.5136 22.9981 25.3935C22.9981 24.5845 22.3422 23.9286 21.5332 23.9286H11.2793V20.9989H38.6231V35.6474ZM11.2793 35.6474V26.8583H14.209V28.3232C14.209 29.1321 14.8649 29.788 15.6739 29.788C16.4828 29.788 17.1387 29.1321 17.1387 28.3232V26.8583H20.0684V35.6474H11.2793ZM11.2793 38.5771H14.209V40.0419C14.209 40.8509 14.8649 41.5068 15.6739 41.5068C16.4828 41.5068 17.1387 40.8509 17.1387 40.0419V38.5771H20.0684V47.3661H11.2793V38.5771ZM47.0215 47.3661H41.5528V19.5341C41.5528 18.7251 40.8969 18.0693 40.0879 18.0693H9.81448C9.00549 18.0693 8.34963 18.7251 8.34963 19.5341V47.3661H2.97854V13.3549L24.9525 3.36915L47.0215 13.3566V47.3661Z" fill="#7261FF"/>
<path d="M19.0918 11.7217C19.0918 12.5307 19.7477 13.1865 20.5566 13.1865H29.3457C30.1547 13.1865 30.8105 12.5307 30.8105 11.7217C30.8105 10.9127 30.1547 10.2568 29.3457 10.2568H20.5566C19.7477 10.2568 19.0918 10.9127 19.0918 11.7217Z" fill="#7261FF"/>
</g>
<defs>
<clipPath id="clip0_1_121">
<rect width="50" height="50" fill="white" transform="translate(0 0.295898)"/>
</clipPath>
</defs>
</svg>
