<svg width="51" height="51" viewBox="0 0 51 51" fill="none" xmlns="http://www.w3.org/2000/svg">
<g clip-path="url(#clip0_1_144)">
<path d="M50.4999 25.2468C50.4995 24.5254 50.0746 23.8689 49.4169 23.5737L45.6144 21.8666L49.4173 20.1595C50.0749 19.8643 50.4999 19.2074 50.4999 18.4864C50.4999 17.765 50.0749 17.1085 49.4169 16.8129L33.679 9.74848C33.6661 9.74238 33.6531 9.73627 33.6401 9.73093L26.2514 6.41444C25.7738 6.19929 25.2264 6.19967 24.7488 6.41406L24.7492 6.41368L1.58261 16.8129C0.924957 17.1085 0.5 17.765 0.5 18.4864C0.5 19.2074 0.924957 19.8643 1.58299 20.1599L5.38547 21.8666L1.58299 23.5737C0.925338 23.8689 0.5 24.5254 0.5 25.2468C0.499619 25.9682 0.924957 26.6247 1.58299 26.9203L5.49457 28.6762L1.58261 30.4325C0.924957 30.7277 0.5 31.3846 0.5 32.1056C0.5 32.827 0.924957 33.4835 1.58299 33.7791L24.7488 44.178C24.9876 44.2855 25.244 44.3389 25.5003 44.3389C25.7563 44.3389 26.0123 44.2852 26.2507 44.1783L49.4173 33.7787C50.0749 33.4835 50.4999 32.8266 50.4999 32.1056C50.4999 31.3843 50.0749 30.7277 49.4169 30.4321L45.5053 28.6762L49.4173 26.9203C50.0749 26.625 50.4999 25.9682 50.4999 25.2468ZM17.9865 12.6606L21.9691 14.4486L17.6894 16.37L13.7644 14.5561L17.9865 12.6606ZM25.5457 16.0545L29.8769 17.9989L25.5453 20.0008L21.2141 17.9989L25.5457 16.0545ZM37.2812 14.5767L33.4017 16.3696L29.1224 14.4486L33.0591 12.6812L37.2812 14.5767ZM22.0534 21.6145L17.0889 23.909L12.5689 21.88L17.6718 19.5892L22.0534 21.6145ZM25.5453 23.2281L30.414 25.4784L25.5 27.6844L20.6316 25.4993L25.5453 23.2281ZM33.9567 23.8884L29.0369 21.6145L33.4192 19.5892L38.4764 21.8597L33.9567 23.8884ZM42.0534 20.2538L36.944 17.96L40.8236 16.1667L45.9909 18.4864L42.0534 20.2538ZM25.5 9.28805L29.4821 11.0756L25.5457 12.843L21.5636 11.055L25.5 9.28805ZM10.2217 16.1465L14.1467 17.9604L8.99226 20.2744L5.00896 18.4864L10.2217 16.1465ZM45.9909 32.1056L25.5 41.304L5.00896 32.1056L9.07161 30.2822L24.75 37.3199C24.9884 37.4267 25.244 37.4805 25.5 37.4801C25.7559 37.4801 26.0119 37.4267 26.2507 37.3195L41.9283 30.2822L45.9909 32.1056ZM25.5 34.4452L5.00896 25.2468L8.96213 23.4722L24.7488 30.5588C24.9876 30.6659 25.244 30.7197 25.5003 30.7197C25.7563 30.7197 26.0123 30.6659 26.2507 30.5588L42.0378 23.4722L45.9909 25.2468L25.5 34.4452Z" fill="#7261FF"/>
</g>
<defs>
<clipPath id="clip0_1_144">
<rect width="50" height="50" fill="white" transform="translate(0.5 0.295898)"/>
</clipPath>
</defs>
</svg>
