<svg width="51" height="51" viewBox="0 0 51 51" fill="none" xmlns="http://www.w3.org/2000/svg">
<path d="M49.038 47.6619H47.9935V34.6137C48.2678 34.8475 48.6043 34.9634 48.9401 34.9634C49.3437 34.9634 49.7454 34.7973 50.0343 34.4716C50.5702 33.8676 50.5148 32.9436 49.9108 32.4078L45.625 28.6059V21.029C45.625 20.2216 44.9705 19.5671 44.1631 19.5671C43.3557 19.5671 42.7011 20.2216 42.7011 21.029V26.0121L35.0346 19.2112V11.6444C35.0346 5.62281 30.1357 0.723877 24.114 0.723877C18.0924 0.723877 13.1935 5.62281 13.1935 11.6444V14.82C11.5931 11.836 10.0499 9.72758 9.91637 9.54678C9.64074 9.17368 9.20439 8.9536 8.74055 8.9536C8.27671 8.9536 7.84035 9.17378 7.56472 9.54678C7.28012 9.93206 0.59425 19.0701 0.59425 26.7844C0.59425 30.5496 1.34513 34.1125 2.70858 36.8166C3.91131 39.2019 5.49941 40.7405 7.27856 41.2834V47.6618H1.96199C1.15458 47.6618 0.5 48.3164 0.5 49.1238C0.5 49.9312 1.15458 50.5858 1.96199 50.5858H49.038C49.8454 50.5858 50.5 49.9312 50.5 49.1238C50.5 48.3165 49.8454 47.6619 49.038 47.6619ZM25.6421 47.6619H22.7181V36.8017H25.6421V47.6619ZM27.1041 33.8777H21.2561C20.4487 33.8777 19.7942 34.5323 19.7942 35.3397V47.6619H16.8702V32.0218L30.9698 19.5141L45.0695 32.0218V47.6619H28.5661V35.3397C28.5661 34.5323 27.9116 33.8777 27.1041 33.8777ZM16.1173 11.6444C16.1173 7.23509 19.7046 3.64785 24.1139 3.64785C28.5233 3.64785 32.1105 7.23509 32.1105 11.6444V16.6173L31.9401 16.4661C31.3865 15.975 30.5532 15.975 29.9997 16.4661L25.5023 20.4557V12.6827C25.5023 11.8753 24.8478 11.2208 24.0404 11.2208C23.2329 11.2208 22.5784 11.8753 22.5784 12.6827V17.1388L21.6041 16.1548C21.036 15.581 20.1104 15.5764 19.5366 16.1445C18.9628 16.7127 18.9582 17.6383 19.5263 18.2121L22.5784 21.2947V23.0496L17.9434 27.1612C17.5021 26.5966 17.0805 25.9661 16.8199 25.4178C16.7076 24.223 16.4581 23.0092 16.1173 21.8118V11.6444ZM5.3192 35.5002C4.1577 33.1966 3.51793 30.1013 3.51793 26.7845C3.51793 21.8593 6.89337 15.9112 8.74103 13.0245C10.0538 15.0732 12.1352 18.6646 13.2315 22.3421C13.2448 22.4005 13.2622 22.4573 13.2824 22.5129C13.7002 23.9563 13.9627 25.4095 13.9627 26.7846C13.9627 28.2565 13.8361 29.6843 13.5944 31.0192L12.0289 32.4079C11.425 32.9437 11.3696 33.8677 11.9055 34.4717C12.0627 34.6489 12.2538 34.7776 12.46 34.8593C12.3643 35.0784 12.2658 35.2936 12.1615 35.5003C11.1749 37.4571 9.92788 38.5793 8.74035 38.5793C7.55283 38.5793 6.30585 37.457 5.3192 35.5002ZM10.2023 41.2835C11.5996 40.8571 12.8788 39.816 13.9462 38.2331V47.6618H10.2023V41.2835Z" fill="#7261FF"/>
</svg>
