<svg width="58" height="51" viewBox="0 0 58 51" fill="none" xmlns="http://www.w3.org/2000/svg">
<g clip-path="url(#clip0_1_108)">
<path d="M52.1732 47.7171V11.7876H43.3846V0.647461L14.6156 7.6011V17.5596H5.82689V47.7171H2.25732V50.6475H55.7428V47.7171H52.1732ZM9.22615 47.7171V20.49H23.5021V47.7171H9.22615ZM26.9014 47.7171V17.5596H18.0147V9.82292L39.9852 4.51256L39.9361 47.7172H26.9014V47.7171ZM43.3845 47.7171V14.718H48.7738V47.7171H43.3845Z" fill="#7261FF"/>
<path d="M14.6645 25.1179H18.0638V31.012H14.6645V25.1179Z" fill="#7261FF"/>
<path d="M14.6645 35.8823H18.0638V41.7764H14.6645V35.8823Z" fill="#7261FF"/>
<path d="M31.0986 25.1179H34.4978V31.012H31.0986V25.1179Z" fill="#7261FF"/>
<path d="M31.0986 14.3533H34.4978V20.2474H31.0986V14.3533Z" fill="#7261FF"/>
<path d="M31.0986 35.8823H34.4978V41.7764H31.0986V35.8823Z" fill="#7261FF"/>
</g>
<defs>
<clipPath id="clip0_1_108">
<rect width="58" height="50" fill="white" transform="translate(0 0.647461)"/>
</clipPath>
</defs>
</svg>
