<svg width="51" height="51" viewBox="0 0 51 51" fill="none" xmlns="http://www.w3.org/2000/svg">
<path d="M49.4681 14.3723C49.4681 14.1768 49.4296 13.9806 49.3504 13.7955L45.6629 5.18584C44.9466 3.51465 43.4432 2.47656 41.7392 2.47656H8.93789C7.24228 2.47656 5.77832 3.48047 5.02139 5.16338L1.15947 13.7728C1.07363 13.9643 1.03174 14.1687 1.03174 14.3723L1.03125 17.7938C1.03125 20.5518 2.60098 22.9484 4.89307 24.1419V44.8538C4.89307 47.0399 6.67158 48.8185 8.85762 48.8185H41.8168C44.0029 48.8185 45.7814 47.0399 45.7814 44.8538V24.0496C47.9784 22.8274 49.4688 20.482 49.4688 17.7939L49.4681 14.3723ZM7.69385 6.36377C7.85469 6.00615 8.23027 5.40615 8.93789 5.40615H41.7393C42.462 5.40615 42.8207 5.99121 42.9701 6.33955L45.7831 12.9073H4.75859L7.69385 6.36377ZM7.82275 44.8537V41.5405H18.8562V45.8887H8.85752C8.29658 45.8887 7.82275 45.4147 7.82275 44.8537ZM28.8885 45.8887H21.7859V30.7193H28.8885V45.8887ZM41.8168 45.8887H31.8182V41.5405H42.8517V44.8537C42.8517 45.4147 42.3777 45.8887 41.8168 45.8887ZM42.8518 38.6108H31.8183V29.9134C31.8183 28.7424 30.8655 27.7896 29.6945 27.7896H20.9828C19.8103 27.7896 18.8563 28.7423 18.8563 29.9134V38.6108H7.82295V24.9383C7.94297 24.9443 8.06367 24.9475 8.18516 24.9475C10.5024 24.9475 12.5657 23.84 13.8739 22.1266C15.1821 23.84 17.2454 24.9475 19.5628 24.9475C21.8802 24.9475 23.9434 23.84 25.2516 22.1266C26.5598 23.84 28.623 24.9475 30.9404 24.9475C33.2578 24.9475 35.3211 23.84 36.6293 22.1266C37.9375 23.84 40.0008 24.9475 42.3181 24.9475C42.4979 24.9475 42.6755 24.9386 42.852 24.9254L42.8518 38.6108ZM42.3179 22.0178C39.9888 22.0178 38.0939 20.1229 38.0939 17.7938C38.0939 16.9849 37.4381 16.329 36.6291 16.329C35.8201 16.329 35.1643 16.9849 35.1643 17.7938C35.1643 20.1229 33.2694 22.0178 30.9402 22.0178C28.611 22.0178 26.7162 20.1229 26.7162 17.7938C26.7162 16.9849 26.0604 16.329 25.2514 16.329C24.4424 16.329 23.7865 16.9849 23.7865 17.7938C23.7865 20.1229 21.8917 22.0178 19.5626 22.0178C17.2335 22.0178 15.3386 20.1229 15.3386 17.7938C15.3386 16.9849 14.6827 16.329 13.8737 16.329C13.0647 16.329 12.4089 16.9849 12.4089 17.7938C12.4089 20.1229 10.5141 22.0178 8.18496 22.0178C5.85586 22.0178 3.96094 20.1229 3.96094 17.7938V15.8371H46.5391V17.7938C46.5391 20.1229 44.6455 22.0178 42.3179 22.0178Z" fill="#7261FF"/>
</svg>
